<svg width="32" height="32" viewBox="0 0 32 32" fill="none" xmlns="http://www.w3.org/2000/svg">
<g clip-path="url(#clip0)">
<path d="M25.0608 4.0022H22.061V3.0022C22.061 2.44996 21.6135 2.00221 21.0613 2.00221H18.8904C18.3391 0.439951 16.6255 -0.379629 15.0632 0.171884C14.2078 0.473886 13.5347 1.14674 13.2327 2.00221H11.062C10.5098 2.00221 10.062 2.44996 10.062 3.0022V4.0022H7.06226C5.40552 4.0022 4.0625 5.34522 4.0625 7.00196V29.0002C4.0625 30.657 5.40552 32 7.06226 32H25.061C26.7178 32 28.0608 30.657 28.0608 29.0002V7.00196C28.0605 5.34522 26.7175 4.0022 25.0608 4.0022V4.0022ZM12.0618 4.0022H14.0618C14.614 4.0022 15.0618 3.55445 15.0618 3.0022C15.0618 2.44996 15.5093 2.00221 16.0615 2.00221C16.6138 2.00221 17.0615 2.44996 17.0615 3.0022C17.0615 3.55445 17.5093 4.0022 18.0615 4.0022H20.0613V6.00196H12.0618V4.0022ZM26.0608 29.0002C26.0608 29.5525 25.613 30.0002 25.0608 30.0002H7.06226C6.51001 30.0002 6.06226 29.5525 6.06226 29.0002V7.00196C6.06226 6.44971 6.51001 6.00196 7.06226 6.00196H10.062V7.00196C10.062 7.5542 10.5098 8.00171 11.062 8.00171H21.0613C21.6135 8.00171 22.061 7.5542 22.061 7.00196V6.00196H25.061C25.6133 6.00196 26.0608 6.44971 26.0608 7.00196V29.0002Z" fill="white"/>
<path d="M22.0611 12.0015H10.062C9.50977 12.0015 9.06201 12.4492 9.06201 13.0015C9.06201 13.5537 9.50977 14.0015 10.062 14.0015H22.0611C22.6133 14.0015 23.0611 13.5537 23.0611 13.0015C23.0611 12.4492 22.6133 12.0015 22.0611 12.0015Z" fill="white"/>
<path d="M22.0611 18.001H10.062C9.50977 18.001 9.06201 18.4487 9.06201 19.001C9.06201 19.5532 9.50977 20.001 10.062 20.001H22.0611C22.6133 20.001 23.0611 19.5532 23.0611 19.001C23.0611 18.4487 22.6133 18.001 22.0611 18.001Z" fill="white"/>
<path d="M22.0611 24.0009H10.062C9.50977 24.0009 9.06201 24.4484 9.06201 25.0006C9.06201 25.5529 9.50977 26.0006 10.062 26.0006H22.0611C22.6133 26.0006 23.0611 25.5529 23.0611 25.0006C23.0611 24.4484 22.6133 24.0009 22.0611 24.0009Z" fill="white"/>
</g>
<defs>
<clipPath id="clip0">
<rect width="32" height="32" fill="white"/>
</clipPath>
</defs>
</svg>
